# xmcd
#
# Track frame offsets: 
#        150
#        19865
#        36868
#        57971
#        75170
#        92215
#        108807
#        127651
#        144677
#        156472
#        170339
#        180281
#        193730
#        205819
#        218930
#        232398
#        248449
#        265782
#        282721
#        299878
#        315753
#        332063
#
# Disc length: 4656 seconds
#
# Revision: 3
# Processed by: cddbd v1.5.2PL0 Copyright (c) Steve Scherf et al.
# Submitted via: ExactAudioCopyFreeDBPlugin 1.0
#
DISCID=3e122e16
DTITLE=Ray Charles - 1962 - The Complete Country and Western Recordings:
DTITLE=1959-1986 Cd 4
DYEAR=1962
DGENRE=Country
TTITLE0=3 - 4 Time
TTITLE1=Shakin' Your Head
TTITLE2=I Had It All
TTITLE3=Do I Ever Cross Your Mind
TTITLE4=Woman Sensuous Woman
TTITLE5=Then I'll Be Over You
TTITLE6=If I Were You
TTITLE7=Workin' Man's Woman
TTITLE8=Two Old Cats Like Us (with Hank Williams, Jr.)
TTITLE9=This Old Heart (Is Gonna Rise Again) (with The Oak Ridge Boys)
TTITLE10=We Didn't See a Thing (with George Jones, featuring Chet Atki
TTITLE10=ns)
TTITLE11=Who Cares (with Janie Fricke)
TTITLE12=Friendship (with Ricky Skaggs)
TTITLE13=It Ain't Gonna Worry My Mind (with Mickey Gilley)
TTITLE14=Little Hotel Room (with Merle Haggard)
TTITLE15=Crazy Old Soldier (with Johnny Cash)
TTITLE16=Seven Spanish Angels (with Willie Nelson)
TTITLE17=The Pages of My Mind
TTITLE18=Slip Away
TTITLE19=Anybody with the Blues
TTITLE20=A Little Bit of Heaven
TTITLE21=Dixie Moon
EXTD=Part of 4-CD box set
EXTT0=
EXTT1=
EXTT2=
EXTT3=
EXTT4=
EXTT5=
EXTT6=
EXTT7=
EXTT8=
EXTT9=
EXTT10=
EXTT11=
EXTT12=
EXTT13=
EXTT14=
EXTT15=
EXTT16=
EXTT17=
EXTT18=
EXTT19=
EXTT20=
EXTT21=
PLAYORDER=
